<svg width="96" height="96" version="1.1" viewBox="0 0 96 96" xml:space="preserve" xmlns="http://www.w3.org/2000/svg" xmlns:xlink="http://www.w3.org/1999/xlink"><defs><linearGradient id="h" x1="-3.1571" x2="-1.029" y1="1.3593" y2="1.3593" gradientTransform="matrix(45.11 0 0 56.041 142.42 -124.18)" gradientUnits="userSpaceOnUse"><stop stop-color="#b6beff" offset=".25706"/><stop stop-color="#0ccde6" offset=".65537"/></linearGradient><linearGradient id="g" x1="-3.7042" x2="-1.8521" y1="2.1167" y2="2.1167" gradientTransform="matrix(45.354 0 0 39.685 174 -132)" gradientUnits="userSpaceOnUse"><stop stop-color="#7384c7" offset=".33"/><stop stop-color="#0a9fc3" offset=".66379"/></linearGradient><linearGradient id="f" x1="-57" x2="-57" y1="114" y2="87" gradientTransform="matrix(1.7778 0 0 1.3333 149.33 -56)" gradientUnits="userSpaceOnUse"><stop stop-color="#d8d1b4" offset="0"/><stop stop-color="#ffffed" offset="1"/></linearGradient><clipPath id="i"><path class="UnoptimicedTransforms" d="m16.898 96c0.35738-1.3206 0.85798-5.2377 0.72656-9.6094-0.22387-7.447-3.1546-14.658-2.625-23.297 0.50878-8.3002 1.5616-15.192 9.3952-28.059 1.0296-1.6911 1.7666-6.5634 4.3598-13.936 3.9654-11.273 7.5614-12.345 9.4-12.458 4.2197-0.25882 8.922 10.958 12.804 12.739 0.74136-0.64603 10.504-8.1945 13.138-7.8538 3.6759 0.47546 7.4382 21.384 8.0017 23.246 0.53778 1.7763 1.8021 3.8838 2.0156 5.19 0.234 1.4317 0.12156 2.5559 0.0588 4.3518 2.4849 8.2891 5.4758 19.431 5.4392 22.313-0.15222 11.987-5.5809 18.304-6.8382 27.373z" fill="#fff" style="mix-blend-mode:normal"/></clipPath><radialGradient id="d" cx="-3" cy="147" r="39" gradientTransform="matrix(1.0769 0 0 1.0769 63.231 -104.31)" gradientUnits="userSpaceOnUse"><stop stop-color="#fff" offset="0"/><stop stop-color="#fff" stop-opacity="0" offset="1"/></radialGradient><linearGradient id="e" x1="48" x2="60" y1="96" y2="60" gradientUnits="userSpaceOnUse"><stop stop-color="#aff" offset="0"/><stop stop-color="#fcffff" offset="1"/></linearGradient><radialGradient id="c" cx="60" cy="42.047" r="18.079" gradientTransform="matrix(2.655 -2.6146e-7 3.8602e-7 .99564 -99.302 6.1369)" gradientUnits="userSpaceOnUse"><stop stop-color="#ff9f37" offset=".011881"/><stop stop-color="#ffcc74" offset=".45941"/></radialGradient><radialGradient id="b" cx="50.722" cy="37.464" r="19.121" gradientTransform="matrix(.78039 -.75129 .85752 .89073 -20.664 38.201)" gradientUnits="userSpaceOnUse"><stop stop-color="#ffd68e" offset=".58233"/><stop stop-color="#ffa140" offset="1"/></radialGradient><radialGradient id="a" cx="-3" cy="147" r="39" gradientTransform="matrix(.56391 0 0 .13355 64.358 28.806)" gradientUnits="userSpaceOnUse"><stop stop-color="#d9d1b4" offset="0"/><stop stop-color="#ffeb99" stop-opacity="0" offset="1"/></radialGradient></defs><g><rect transform="rotate(90)" y="-96" width="96" height="96" ry="0" fill="url(#h)" image-rendering="crisp-edges"/><ellipse transform="rotate(90)" cx="48" cy="-48" rx="42" ry="42" fill="url(#g)"/><g clip-path="url(#i)"><rect width="96" height="96" ry="0" fill="url(#f)"/><path class="UnoptimicedTransforms" d="m16.898 96c0.35738-1.3206 0.85798-5.2377 0.72656-9.6094-0.22387-7.447-3.1546-14.658-2.625-23.297 0.50878-8.3002 1.5616-15.192 9.3952-28.059 1.0296-1.6911 1.7666-6.5634 4.3598-13.936 3.9654-11.273 7.5614-12.345 9.4-12.458 4.2197-0.25882 8.922 10.958 12.804 12.739 0.74136-0.64603 10.504-8.1945 13.138-7.8538 3.6759 0.47546 7.4382 21.384 8.0017 23.246 0.53778 1.7763 1.8021 3.8838 2.0156 5.19 0.234 1.4317 0.12156 2.5559 0.0588 4.3518 2.4849 8.2891 5.4758 19.431 5.4392 22.313-0.15222 11.987-5.5809 18.304-6.8382 27.373" clip-path="none" fill="none" stroke="url(#e)" stroke-linecap="round" stroke-linejoin="round" stroke-width="8" style="mix-blend-mode:normal"/><circle cx="60" cy="54" r="42" fill="url(#d)" style="mix-blend-mode:normal"/><ellipse cx="62.667" cy="48.438" rx="21.992" ry="5.2086" fill="url(#a)" style="mix-blend-mode:normal"/></g><path d="m73.915 48.359c0.68465 2.1859 4.7037 15.765 1.8895 17.842-2.7982 2.0654-6.4521 2.3163-12.198 2.4432-8.1886 0.18072-16.072-1.1473-19.403-5.3948-5.271-6.7205-3.5008-15.182-2.2076-16.68 0.64555-0.74781 10.097 1.2377 19.435 1.8824 15.095 1.0422 12.051-1.4752 12.484-0.09252z" fill="url(#c)"/><path d="m56.299 22.676c6.4786 3.1583 9.9165 5.557 14.268 11.763-1.3068-5.7011-3.8809-16.482-6.1319-17.401-2.5484-1.0412-7.6234 4.2724-8.1361 5.6388zm-19.773 15.873c-5.4479-7.0193-6.2849-21.408 1.6241-26.251 1.7773-1.0883 6.2074 2.5218 9.5459 8.9493-5.3082 1.3642-9.4366 3.1882-10.289 4.5437-0.9412 1.4966-1.9545 5.7543-0.88104 12.758z" fill="url(#b)"/><path d="m63.187 62.166c0.75026 1.7368 2.0034 1.5356 3.0534 0.57828 1.1566-1.0545 1.544-1.7856 1.4946-4.9977 0.08099 2.9947 0.24938 4.4319 1.4433 5.1369 1.2149 0.71736 2.2128-0.2844 2.4187-0.8729" fill="none" stroke="#000" stroke-linecap="round" stroke-linejoin="round" stroke-width="2"/><g><ellipse cx="48.81" cy="53.062" rx="5.4027" ry="5.4359"/><ellipse cx="50.917" cy="50.626" rx="2.0472" ry="2.0177" fill="#fff"/><path d="m75.539 57.727c-1.5401-1.3776-2.2415-7.2074-1.9219-8.8359 0.36936-1.8821 2.7334 2.8509 3.0234 4.6875 0.22314 1.4132-0.10656 5.0385-1.1016 4.1484z"/><path d="m75.508 52.894c-1.0457-0.55958-1.4329-2.5785-1.3594-3.2813 0.09638-0.92078 1.1963 0.587 1.4531 1.1484 0.29604 0.64714 0.47166 2.4354-0.09366 2.1328z" fill="#fff"/></g></g></svg>
